G04 #@! TF.GenerationSoftware,KiCad,Pcbnew,(5.0.2)-1*
G04 #@! TF.CreationDate,2019-01-06T13:33:06-08:00*
G04 #@! TF.ProjectId,banana-nixie-clock,62616e61-6e61-42d6-9e69-7869652d636c,rev?*
G04 #@! TF.SameCoordinates,Original*
G04 #@! TF.FileFunction,Copper,L1,Top*
G04 #@! TF.FilePolarity,Positive*
%FSLAX46Y46*%
G04 Gerber Fmt 4.6, Leading zero omitted, Abs format (unit mm)*
G04 Created by KiCad (PCBNEW (5.0.2)-1) date 1/6/2019 1:33:06 PM*
%MOMM*%
%LPD*%
G01*
G04 APERTURE LIST*
G04 #@! TA.AperFunction,EtchedComponent*
%ADD10C,0.381000*%
G04 #@! TD*
G04 #@! TA.AperFunction,ComponentPad*
%ADD11C,2.540000*%
G04 #@! TD*
G04 #@! TA.AperFunction,ComponentPad*
%ADD12R,1.700000X1.700000*%
G04 #@! TD*
G04 #@! TA.AperFunction,ComponentPad*
%ADD13O,1.700000X1.700000*%
G04 #@! TD*
G04 #@! TA.AperFunction,ComponentPad*
%ADD14R,1.600000X1.600000*%
G04 #@! TD*
G04 #@! TA.AperFunction,ComponentPad*
%ADD15O,1.600000X1.600000*%
G04 #@! TD*
G04 #@! TA.AperFunction,ComponentPad*
%ADD16C,1.600000*%
G04 #@! TD*
G04 #@! TA.AperFunction,ViaPad*
%ADD17C,0.800000*%
G04 #@! TD*
G04 #@! TA.AperFunction,Conductor*
%ADD18C,0.250000*%
G04 #@! TD*
G04 #@! TA.AperFunction,Conductor*
%ADD19C,0.300000*%
G04 #@! TD*
G04 APERTURE END LIST*
D10*
G04 #@! TO.C,REF\002A\002A*
X155321000Y-96774000D02*
X160020000Y-89789000D01*
X164719000Y-96774000D02*
X155321000Y-96774000D01*
X160020000Y-89789000D02*
X164719000Y-96774000D01*
X159522160Y-96179640D02*
X159420560Y-95280480D01*
X160319720Y-93380560D02*
X159522160Y-96179640D01*
X159120840Y-94180660D02*
X160319720Y-93380560D01*
X159920940Y-91180920D02*
X159120840Y-94180660D01*
X159522160Y-96179640D02*
X160121600Y-95481140D01*
X159120840Y-94180660D02*
X160421320Y-91379040D01*
X160721040Y-93080840D02*
X160121600Y-93479620D01*
X159522160Y-96179640D02*
X160721040Y-93080840D01*
G04 #@! TD*
D11*
G04 #@! TO.P,N1,LHDP*
G04 #@! TO.N,Net-(N1-PadLHDP)*
X35242500Y-62156340D03*
G04 #@! TO.P,N1,A*
G04 #@! TO.N,Net-(N1-PadA)*
X39240460Y-61155580D03*
G04 #@! TO.P,N1,9*
G04 #@! TO.N,Net-(N1-Pad9)*
X40733980Y-53340000D03*
G04 #@! TO.P,N1,8*
G04 #@! TO.N,Net-(N1-Pad8)*
X40606980Y-48841660D03*
G04 #@! TO.P,N1,7*
G04 #@! TO.N,Net-(N1-Pad7)*
X39240460Y-45524420D03*
G04 #@! TO.P,N1,6*
G04 #@! TO.N,Net-(N1-Pad6)*
X35242500Y-44523660D03*
G04 #@! TO.P,N1,5*
G04 #@! TO.N,Net-(N1-Pad5)*
X31244540Y-45524420D03*
G04 #@! TO.P,N1,4*
G04 #@! TO.N,Net-(N1-Pad4)*
X29560520Y-48841660D03*
G04 #@! TO.P,N1,3*
G04 #@! TO.N,Net-(N1-Pad3)*
X29433520Y-53340000D03*
G04 #@! TO.P,N1,2*
G04 #@! TO.N,Net-(N1-Pad2)*
X29560520Y-57838340D03*
G04 #@! TO.P,N1,1*
G04 #@! TO.N,Net-(N1-Pad1)*
X31244540Y-61155580D03*
G04 #@! TO.P,N1,0*
G04 #@! TO.N,Net-(N1-Pad0)*
X40606980Y-57838340D03*
G04 #@! TD*
G04 #@! TO.P,N2,0*
G04 #@! TO.N,Net-(N2-Pad0)*
X64736980Y-57838340D03*
G04 #@! TO.P,N2,1*
G04 #@! TO.N,Net-(N2-Pad1)*
X55374540Y-61155580D03*
G04 #@! TO.P,N2,2*
G04 #@! TO.N,Net-(N2-Pad2)*
X53690520Y-57838340D03*
G04 #@! TO.P,N2,3*
G04 #@! TO.N,Net-(N2-Pad3)*
X53563520Y-53340000D03*
G04 #@! TO.P,N2,4*
G04 #@! TO.N,Net-(N2-Pad4)*
X53690520Y-48841660D03*
G04 #@! TO.P,N2,5*
G04 #@! TO.N,Net-(N2-Pad5)*
X55374540Y-45524420D03*
G04 #@! TO.P,N2,6*
G04 #@! TO.N,Net-(N2-Pad6)*
X59372500Y-44523660D03*
G04 #@! TO.P,N2,7*
G04 #@! TO.N,Net-(N2-Pad7)*
X63370460Y-45524420D03*
G04 #@! TO.P,N2,8*
G04 #@! TO.N,Net-(N2-Pad8)*
X64736980Y-48841660D03*
G04 #@! TO.P,N2,9*
G04 #@! TO.N,Net-(N2-Pad9)*
X64863980Y-53340000D03*
G04 #@! TO.P,N2,A*
G04 #@! TO.N,Net-(N2-PadA)*
X63370460Y-61155580D03*
G04 #@! TO.P,N2,LHDP*
G04 #@! TO.N,Net-(N2-PadLHDP)*
X59372500Y-62156340D03*
G04 #@! TD*
G04 #@! TO.P,N3,LHDP*
G04 #@! TO.N,Net-(N3-PadLHDP)*
X83502500Y-62156340D03*
G04 #@! TO.P,N3,A*
G04 #@! TO.N,Net-(N3-PadA)*
X87500460Y-61155580D03*
G04 #@! TO.P,N3,9*
G04 #@! TO.N,Net-(N3-Pad9)*
X88993980Y-53340000D03*
G04 #@! TO.P,N3,8*
G04 #@! TO.N,Net-(N3-Pad8)*
X88866980Y-48841660D03*
G04 #@! TO.P,N3,7*
G04 #@! TO.N,Net-(N3-Pad7)*
X87500460Y-45524420D03*
G04 #@! TO.P,N3,6*
G04 #@! TO.N,Net-(N3-Pad6)*
X83502500Y-44523660D03*
G04 #@! TO.P,N3,5*
G04 #@! TO.N,Net-(N3-Pad5)*
X79504540Y-45524420D03*
G04 #@! TO.P,N3,4*
G04 #@! TO.N,Net-(N3-Pad4)*
X77820520Y-48841660D03*
G04 #@! TO.P,N3,3*
G04 #@! TO.N,Net-(N3-Pad3)*
X77693520Y-53340000D03*
G04 #@! TO.P,N3,2*
G04 #@! TO.N,Net-(N3-Pad2)*
X77820520Y-57838340D03*
G04 #@! TO.P,N3,1*
G04 #@! TO.N,Net-(N3-Pad1)*
X79504540Y-61155580D03*
G04 #@! TO.P,N3,0*
G04 #@! TO.N,Net-(N3-Pad0)*
X88866980Y-57838340D03*
G04 #@! TD*
G04 #@! TO.P,N4,0*
G04 #@! TO.N,Net-(N4-Pad0)*
X112996980Y-57838340D03*
G04 #@! TO.P,N4,1*
G04 #@! TO.N,Net-(N4-Pad1)*
X103634540Y-61155580D03*
G04 #@! TO.P,N4,2*
G04 #@! TO.N,Net-(N4-Pad2)*
X101950520Y-57838340D03*
G04 #@! TO.P,N4,3*
G04 #@! TO.N,Net-(N4-Pad3)*
X101823520Y-53340000D03*
G04 #@! TO.P,N4,4*
G04 #@! TO.N,Net-(N4-Pad4)*
X101950520Y-48841660D03*
G04 #@! TO.P,N4,5*
G04 #@! TO.N,Net-(N4-Pad5)*
X103634540Y-45524420D03*
G04 #@! TO.P,N4,6*
G04 #@! TO.N,Net-(N4-Pad6)*
X107632500Y-44523660D03*
G04 #@! TO.P,N4,7*
G04 #@! TO.N,Net-(N4-Pad7)*
X111630460Y-45524420D03*
G04 #@! TO.P,N4,8*
G04 #@! TO.N,Net-(N4-Pad8)*
X112996980Y-48841660D03*
G04 #@! TO.P,N4,9*
G04 #@! TO.N,Net-(N4-Pad9)*
X113123980Y-53340000D03*
G04 #@! TO.P,N4,A*
G04 #@! TO.N,Net-(N4-PadA)*
X111630460Y-61155580D03*
G04 #@! TO.P,N4,LHDP*
G04 #@! TO.N,Net-(N4-PadLHDP)*
X107632500Y-62156340D03*
G04 #@! TD*
G04 #@! TO.P,N5,LHDP*
G04 #@! TO.N,Net-(N5-PadLHDP)*
X131762500Y-62156340D03*
G04 #@! TO.P,N5,A*
G04 #@! TO.N,Net-(N5-PadA)*
X135760460Y-61155580D03*
G04 #@! TO.P,N5,9*
G04 #@! TO.N,Net-(N5-Pad9)*
X137253980Y-53340000D03*
G04 #@! TO.P,N5,8*
G04 #@! TO.N,Net-(N5-Pad8)*
X137126980Y-48841660D03*
G04 #@! TO.P,N5,7*
G04 #@! TO.N,Net-(N5-Pad7)*
X135760460Y-45524420D03*
G04 #@! TO.P,N5,6*
G04 #@! TO.N,Net-(N5-Pad6)*
X131762500Y-44523660D03*
G04 #@! TO.P,N5,5*
G04 #@! TO.N,Net-(N5-Pad5)*
X127764540Y-45524420D03*
G04 #@! TO.P,N5,4*
G04 #@! TO.N,Net-(N5-Pad4)*
X126080520Y-48841660D03*
G04 #@! TO.P,N5,3*
G04 #@! TO.N,Net-(N5-Pad3)*
X125953520Y-53340000D03*
G04 #@! TO.P,N5,2*
G04 #@! TO.N,Net-(N5-Pad2)*
X126080520Y-57838340D03*
G04 #@! TO.P,N5,1*
G04 #@! TO.N,Net-(N5-Pad1)*
X127764540Y-61155580D03*
G04 #@! TO.P,N5,0*
G04 #@! TO.N,Net-(N5-Pad0)*
X137126980Y-57838340D03*
G04 #@! TD*
G04 #@! TO.P,N6,0*
G04 #@! TO.N,Net-(N6-Pad0)*
X161256980Y-57838340D03*
G04 #@! TO.P,N6,1*
G04 #@! TO.N,Net-(N6-Pad1)*
X151894540Y-61155580D03*
G04 #@! TO.P,N6,2*
G04 #@! TO.N,Net-(N6-Pad2)*
X150210520Y-57838340D03*
G04 #@! TO.P,N6,3*
G04 #@! TO.N,Net-(N6-Pad3)*
X150083520Y-53340000D03*
G04 #@! TO.P,N6,4*
G04 #@! TO.N,Net-(N6-Pad4)*
X150210520Y-48841660D03*
G04 #@! TO.P,N6,5*
G04 #@! TO.N,Net-(N6-Pad5)*
X151894540Y-45524420D03*
G04 #@! TO.P,N6,6*
G04 #@! TO.N,Net-(N6-Pad6)*
X155892500Y-44523660D03*
G04 #@! TO.P,N6,7*
G04 #@! TO.N,Net-(N6-Pad7)*
X159890460Y-45524420D03*
G04 #@! TO.P,N6,8*
G04 #@! TO.N,Net-(N6-Pad8)*
X161256980Y-48841660D03*
G04 #@! TO.P,N6,9*
G04 #@! TO.N,Net-(N6-Pad9)*
X161383980Y-53340000D03*
G04 #@! TO.P,N6,A*
G04 #@! TO.N,Net-(N6-PadA)*
X159890460Y-61155580D03*
G04 #@! TO.P,N6,LHDP*
G04 #@! TO.N,Net-(N6-PadLHDP)*
X155892500Y-62156340D03*
G04 #@! TD*
D12*
G04 #@! TO.P,J1,1*
G04 #@! TO.N,Net-(J1-Pad1)*
X26670000Y-97790000D03*
D13*
G04 #@! TO.P,J1,2*
G04 #@! TO.N,Net-(J1-Pad2)*
X29210000Y-97790000D03*
G04 #@! TO.P,J1,3*
G04 #@! TO.N,Net-(J1-Pad3)*
X31750000Y-97790000D03*
G04 #@! TO.P,J1,4*
G04 #@! TO.N,Net-(J1-Pad4)*
X34290000Y-97790000D03*
G04 #@! TO.P,J1,5*
G04 #@! TO.N,Net-(J1-Pad5)*
X36830000Y-97790000D03*
G04 #@! TO.P,J1,6*
G04 #@! TO.N,Net-(J1-Pad6)*
X39370000Y-97790000D03*
G04 #@! TO.P,J1,7*
G04 #@! TO.N,+5V*
X41910000Y-97790000D03*
G04 #@! TO.P,J1,8*
G04 #@! TO.N,GND*
X44450000Y-97790000D03*
G04 #@! TD*
D14*
G04 #@! TO.P,U4,1*
G04 #@! TO.N,Net-(U4-Pad1)*
X83820000Y-99060000D03*
D15*
G04 #@! TO.P,U4,9*
G04 #@! TO.N,Net-(U4-Pad9)*
X101600000Y-91440000D03*
G04 #@! TO.P,U4,2*
G04 #@! TO.N,Net-(U4-Pad2)*
X86360000Y-99060000D03*
G04 #@! TO.P,U4,10*
G04 #@! TO.N,Net-(J1-Pad3)*
X99060000Y-91440000D03*
G04 #@! TO.P,U4,3*
G04 #@! TO.N,Net-(U4-Pad3)*
X88900000Y-99060000D03*
G04 #@! TO.P,U4,11*
G04 #@! TO.N,Net-(J1-Pad2)*
X96520000Y-91440000D03*
G04 #@! TO.P,U4,4*
G04 #@! TO.N,Net-(U4-Pad4)*
X91440000Y-99060000D03*
G04 #@! TO.P,U4,12*
G04 #@! TO.N,Net-(J1-Pad4)*
X93980000Y-91440000D03*
G04 #@! TO.P,U4,5*
G04 #@! TO.N,Net-(U4-Pad5)*
X93980000Y-99060000D03*
G04 #@! TO.P,U4,13*
G04 #@! TO.N,Net-(J1-Pad5)*
X91440000Y-91440000D03*
G04 #@! TO.P,U4,6*
G04 #@! TO.N,Net-(U4-Pad6)*
X96520000Y-99060000D03*
G04 #@! TO.P,U4,14*
G04 #@! TO.N,Net-(U2-Pad9)*
X88900000Y-91440000D03*
G04 #@! TO.P,U4,7*
G04 #@! TO.N,Net-(U4-Pad7)*
X99060000Y-99060000D03*
G04 #@! TO.P,U4,15*
G04 #@! TO.N,Net-(U4-Pad15)*
X86360000Y-91440000D03*
G04 #@! TO.P,U4,8*
G04 #@! TO.N,GND*
X101600000Y-99060000D03*
G04 #@! TO.P,U4,16*
G04 #@! TO.N,+5V*
X83820000Y-91440000D03*
G04 #@! TD*
G04 #@! TO.P,U1,16*
G04 #@! TO.N,Net-(N1-Pad0)*
X26670000Y-77470000D03*
G04 #@! TO.P,U1,8*
G04 #@! TO.N,Net-(N1-Pad2)*
X44450000Y-85090000D03*
G04 #@! TO.P,U1,15*
G04 #@! TO.N,Net-(N1-Pad1)*
X29210000Y-77470000D03*
G04 #@! TO.P,U1,7*
G04 #@! TO.N,Net-(U1-Pad7)*
X41910000Y-85090000D03*
G04 #@! TO.P,U1,14*
G04 #@! TO.N,Net-(N1-Pad5)*
X31750000Y-77470000D03*
G04 #@! TO.P,U1,6*
G04 #@! TO.N,Net-(U1-Pad6)*
X39370000Y-85090000D03*
G04 #@! TO.P,U1,13*
G04 #@! TO.N,Net-(N1-Pad4)*
X34290000Y-77470000D03*
G04 #@! TO.P,U1,5*
G04 #@! TO.N,+5V*
X36830000Y-85090000D03*
G04 #@! TO.P,U1,12*
G04 #@! TO.N,GND*
X36830000Y-77470000D03*
G04 #@! TO.P,U1,4*
G04 #@! TO.N,Net-(U1-Pad4)*
X34290000Y-85090000D03*
G04 #@! TO.P,U1,11*
G04 #@! TO.N,Net-(N1-Pad6)*
X39370000Y-77470000D03*
G04 #@! TO.P,U1,3*
G04 #@! TO.N,Net-(U1-Pad3)*
X31750000Y-85090000D03*
G04 #@! TO.P,U1,10*
G04 #@! TO.N,Net-(N1-Pad7)*
X41910000Y-77470000D03*
G04 #@! TO.P,U1,2*
G04 #@! TO.N,Net-(N1-Pad9)*
X29210000Y-85090000D03*
G04 #@! TO.P,U1,9*
G04 #@! TO.N,Net-(N1-Pad3)*
X44450000Y-77470000D03*
D14*
G04 #@! TO.P,U1,1*
G04 #@! TO.N,Net-(N1-Pad8)*
X26670000Y-85090000D03*
G04 #@! TD*
G04 #@! TO.P,U2,1*
G04 #@! TO.N,Net-(U1-Pad6)*
X57150000Y-99060000D03*
D15*
G04 #@! TO.P,U2,9*
G04 #@! TO.N,Net-(U2-Pad9)*
X74930000Y-91440000D03*
G04 #@! TO.P,U2,2*
G04 #@! TO.N,Net-(U1-Pad7)*
X59690000Y-99060000D03*
G04 #@! TO.P,U2,10*
G04 #@! TO.N,Net-(J1-Pad3)*
X72390000Y-91440000D03*
G04 #@! TO.P,U2,3*
G04 #@! TO.N,Net-(U1-Pad4)*
X62230000Y-99060000D03*
G04 #@! TO.P,U2,11*
G04 #@! TO.N,Net-(J1-Pad2)*
X69850000Y-91440000D03*
G04 #@! TO.P,U2,4*
G04 #@! TO.N,Net-(U2-Pad4)*
X64770000Y-99060000D03*
G04 #@! TO.P,U2,12*
G04 #@! TO.N,Net-(J1-Pad4)*
X67310000Y-91440000D03*
G04 #@! TO.P,U2,5*
G04 #@! TO.N,Net-(U2-Pad5)*
X67310000Y-99060000D03*
G04 #@! TO.P,U2,13*
G04 #@! TO.N,Net-(J1-Pad5)*
X64770000Y-91440000D03*
G04 #@! TO.P,U2,6*
G04 #@! TO.N,Net-(U2-Pad6)*
X69850000Y-99060000D03*
G04 #@! TO.P,U2,14*
G04 #@! TO.N,Net-(J1-Pad1)*
X62230000Y-91440000D03*
G04 #@! TO.P,U2,7*
G04 #@! TO.N,Net-(U2-Pad7)*
X72390000Y-99060000D03*
G04 #@! TO.P,U2,15*
G04 #@! TO.N,Net-(U1-Pad3)*
X59690000Y-91440000D03*
G04 #@! TO.P,U2,8*
G04 #@! TO.N,GND*
X74930000Y-99060000D03*
G04 #@! TO.P,U2,16*
G04 #@! TO.N,+5V*
X57150000Y-91440000D03*
G04 #@! TD*
G04 #@! TO.P,U3,16*
G04 #@! TO.N,Net-(N2-Pad0)*
X50800000Y-77470000D03*
G04 #@! TO.P,U3,8*
G04 #@! TO.N,Net-(N2-Pad2)*
X68580000Y-85090000D03*
G04 #@! TO.P,U3,15*
G04 #@! TO.N,Net-(N2-Pad1)*
X53340000Y-77470000D03*
G04 #@! TO.P,U3,7*
G04 #@! TO.N,Net-(U2-Pad6)*
X66040000Y-85090000D03*
G04 #@! TO.P,U3,14*
G04 #@! TO.N,Net-(N2-Pad5)*
X55880000Y-77470000D03*
G04 #@! TO.P,U3,6*
G04 #@! TO.N,Net-(U2-Pad5)*
X63500000Y-85090000D03*
G04 #@! TO.P,U3,13*
G04 #@! TO.N,Net-(N2-Pad4)*
X58420000Y-77470000D03*
G04 #@! TO.P,U3,5*
G04 #@! TO.N,+5V*
X60960000Y-85090000D03*
G04 #@! TO.P,U3,12*
G04 #@! TO.N,GND*
X60960000Y-77470000D03*
G04 #@! TO.P,U3,4*
G04 #@! TO.N,Net-(U2-Pad7)*
X58420000Y-85090000D03*
G04 #@! TO.P,U3,11*
G04 #@! TO.N,Net-(N2-Pad6)*
X63500000Y-77470000D03*
G04 #@! TO.P,U3,3*
G04 #@! TO.N,Net-(U2-Pad4)*
X55880000Y-85090000D03*
G04 #@! TO.P,U3,10*
G04 #@! TO.N,Net-(N2-Pad7)*
X66040000Y-77470000D03*
G04 #@! TO.P,U3,2*
G04 #@! TO.N,Net-(N2-Pad9)*
X53340000Y-85090000D03*
G04 #@! TO.P,U3,9*
G04 #@! TO.N,Net-(N2-Pad3)*
X68580000Y-77470000D03*
D14*
G04 #@! TO.P,U3,1*
G04 #@! TO.N,Net-(N2-Pad8)*
X50800000Y-85090000D03*
G04 #@! TD*
G04 #@! TO.P,U5,1*
G04 #@! TO.N,Net-(U5-Pad1)*
X110490000Y-99060000D03*
D15*
G04 #@! TO.P,U5,9*
G04 #@! TO.N,Net-(U5-Pad9)*
X128270000Y-91440000D03*
G04 #@! TO.P,U5,2*
G04 #@! TO.N,Net-(U5-Pad2)*
X113030000Y-99060000D03*
G04 #@! TO.P,U5,10*
G04 #@! TO.N,Net-(J1-Pad3)*
X125730000Y-91440000D03*
G04 #@! TO.P,U5,3*
G04 #@! TO.N,Net-(U5-Pad3)*
X115570000Y-99060000D03*
G04 #@! TO.P,U5,11*
G04 #@! TO.N,Net-(J1-Pad2)*
X123190000Y-91440000D03*
G04 #@! TO.P,U5,4*
G04 #@! TO.N,Net-(U5-Pad4)*
X118110000Y-99060000D03*
G04 #@! TO.P,U5,12*
G04 #@! TO.N,Net-(J1-Pad4)*
X120650000Y-91440000D03*
G04 #@! TO.P,U5,5*
G04 #@! TO.N,Net-(U5-Pad5)*
X120650000Y-99060000D03*
G04 #@! TO.P,U5,13*
G04 #@! TO.N,Net-(J1-Pad5)*
X118110000Y-91440000D03*
G04 #@! TO.P,U5,6*
G04 #@! TO.N,Net-(U5-Pad6)*
X123190000Y-99060000D03*
G04 #@! TO.P,U5,14*
G04 #@! TO.N,Net-(U4-Pad9)*
X115570000Y-91440000D03*
G04 #@! TO.P,U5,7*
G04 #@! TO.N,Net-(U5-Pad7)*
X125730000Y-99060000D03*
G04 #@! TO.P,U5,15*
G04 #@! TO.N,Net-(U5-Pad15)*
X113030000Y-91440000D03*
G04 #@! TO.P,U5,8*
G04 #@! TO.N,GND*
X128270000Y-99060000D03*
G04 #@! TO.P,U5,16*
G04 #@! TO.N,+5V*
X110490000Y-91440000D03*
G04 #@! TD*
G04 #@! TO.P,U7,16*
G04 #@! TO.N,Net-(N4-Pad0)*
X99060000Y-77470000D03*
G04 #@! TO.P,U7,8*
G04 #@! TO.N,Net-(N4-Pad2)*
X116840000Y-85090000D03*
G04 #@! TO.P,U7,15*
G04 #@! TO.N,Net-(N4-Pad1)*
X101600000Y-77470000D03*
G04 #@! TO.P,U7,7*
G04 #@! TO.N,Net-(U4-Pad6)*
X114300000Y-85090000D03*
G04 #@! TO.P,U7,14*
G04 #@! TO.N,Net-(N4-Pad5)*
X104140000Y-77470000D03*
G04 #@! TO.P,U7,6*
G04 #@! TO.N,Net-(U4-Pad5)*
X111760000Y-85090000D03*
G04 #@! TO.P,U7,13*
G04 #@! TO.N,Net-(N4-Pad4)*
X106680000Y-77470000D03*
G04 #@! TO.P,U7,5*
G04 #@! TO.N,+5V*
X109220000Y-85090000D03*
G04 #@! TO.P,U7,12*
G04 #@! TO.N,GND*
X109220000Y-77470000D03*
G04 #@! TO.P,U7,4*
G04 #@! TO.N,Net-(U4-Pad7)*
X106680000Y-85090000D03*
G04 #@! TO.P,U7,11*
G04 #@! TO.N,Net-(N4-Pad6)*
X111760000Y-77470000D03*
G04 #@! TO.P,U7,3*
G04 #@! TO.N,Net-(U4-Pad4)*
X104140000Y-85090000D03*
G04 #@! TO.P,U7,10*
G04 #@! TO.N,Net-(N4-Pad7)*
X114300000Y-77470000D03*
G04 #@! TO.P,U7,2*
G04 #@! TO.N,Net-(N4-Pad9)*
X101600000Y-85090000D03*
G04 #@! TO.P,U7,9*
G04 #@! TO.N,Net-(N4-Pad3)*
X116840000Y-77470000D03*
D14*
G04 #@! TO.P,U7,1*
G04 #@! TO.N,Net-(N4-Pad8)*
X99060000Y-85090000D03*
G04 #@! TD*
G04 #@! TO.P,U8,1*
G04 #@! TO.N,Net-(N5-Pad8)*
X123190000Y-85090000D03*
D15*
G04 #@! TO.P,U8,9*
G04 #@! TO.N,Net-(N5-Pad3)*
X140970000Y-77470000D03*
G04 #@! TO.P,U8,2*
G04 #@! TO.N,Net-(N5-Pad9)*
X125730000Y-85090000D03*
G04 #@! TO.P,U8,10*
G04 #@! TO.N,Net-(N5-Pad7)*
X138430000Y-77470000D03*
G04 #@! TO.P,U8,3*
G04 #@! TO.N,Net-(U5-Pad15)*
X128270000Y-85090000D03*
G04 #@! TO.P,U8,11*
G04 #@! TO.N,Net-(N5-Pad6)*
X135890000Y-77470000D03*
G04 #@! TO.P,U8,4*
G04 #@! TO.N,Net-(U5-Pad3)*
X130810000Y-85090000D03*
G04 #@! TO.P,U8,12*
G04 #@! TO.N,GND*
X133350000Y-77470000D03*
G04 #@! TO.P,U8,5*
G04 #@! TO.N,+5V*
X133350000Y-85090000D03*
G04 #@! TO.P,U8,13*
G04 #@! TO.N,Net-(N5-Pad4)*
X130810000Y-77470000D03*
G04 #@! TO.P,U8,6*
G04 #@! TO.N,Net-(U5-Pad1)*
X135890000Y-85090000D03*
G04 #@! TO.P,U8,14*
G04 #@! TO.N,Net-(N5-Pad5)*
X128270000Y-77470000D03*
G04 #@! TO.P,U8,7*
G04 #@! TO.N,Net-(U5-Pad2)*
X138430000Y-85090000D03*
G04 #@! TO.P,U8,15*
G04 #@! TO.N,Net-(N5-Pad1)*
X125730000Y-77470000D03*
G04 #@! TO.P,U8,8*
G04 #@! TO.N,Net-(N5-Pad2)*
X140970000Y-85090000D03*
G04 #@! TO.P,U8,16*
G04 #@! TO.N,Net-(N5-Pad0)*
X123190000Y-77470000D03*
G04 #@! TD*
G04 #@! TO.P,U9,16*
G04 #@! TO.N,Net-(N6-Pad0)*
X147320000Y-77470000D03*
G04 #@! TO.P,U9,8*
G04 #@! TO.N,Net-(N6-Pad2)*
X165100000Y-85090000D03*
G04 #@! TO.P,U9,15*
G04 #@! TO.N,Net-(N6-Pad1)*
X149860000Y-77470000D03*
G04 #@! TO.P,U9,7*
G04 #@! TO.N,Net-(U5-Pad6)*
X162560000Y-85090000D03*
G04 #@! TO.P,U9,14*
G04 #@! TO.N,Net-(N6-Pad5)*
X152400000Y-77470000D03*
G04 #@! TO.P,U9,6*
G04 #@! TO.N,Net-(U5-Pad5)*
X160020000Y-85090000D03*
G04 #@! TO.P,U9,13*
G04 #@! TO.N,Net-(N6-Pad4)*
X154940000Y-77470000D03*
G04 #@! TO.P,U9,5*
G04 #@! TO.N,+5V*
X157480000Y-85090000D03*
G04 #@! TO.P,U9,12*
G04 #@! TO.N,GND*
X157480000Y-77470000D03*
G04 #@! TO.P,U9,4*
G04 #@! TO.N,Net-(U5-Pad7)*
X154940000Y-85090000D03*
G04 #@! TO.P,U9,11*
G04 #@! TO.N,Net-(N6-Pad6)*
X160020000Y-77470000D03*
G04 #@! TO.P,U9,3*
G04 #@! TO.N,Net-(U5-Pad4)*
X152400000Y-85090000D03*
G04 #@! TO.P,U9,10*
G04 #@! TO.N,Net-(N6-Pad7)*
X162560000Y-77470000D03*
G04 #@! TO.P,U9,2*
G04 #@! TO.N,Net-(N6-Pad9)*
X149860000Y-85090000D03*
G04 #@! TO.P,U9,9*
G04 #@! TO.N,Net-(N6-Pad3)*
X165100000Y-77470000D03*
D14*
G04 #@! TO.P,U9,1*
G04 #@! TO.N,Net-(N6-Pad8)*
X147320000Y-85090000D03*
G04 #@! TD*
G04 #@! TO.P,U6,1*
G04 #@! TO.N,Net-(N3-Pad8)*
X74930000Y-85090000D03*
D15*
G04 #@! TO.P,U6,9*
G04 #@! TO.N,Net-(N3-Pad3)*
X92710000Y-77470000D03*
G04 #@! TO.P,U6,2*
G04 #@! TO.N,Net-(N3-Pad9)*
X77470000Y-85090000D03*
G04 #@! TO.P,U6,10*
G04 #@! TO.N,Net-(N3-Pad7)*
X90170000Y-77470000D03*
G04 #@! TO.P,U6,3*
G04 #@! TO.N,Net-(U4-Pad15)*
X80010000Y-85090000D03*
G04 #@! TO.P,U6,11*
G04 #@! TO.N,Net-(N3-Pad6)*
X87630000Y-77470000D03*
G04 #@! TO.P,U6,4*
G04 #@! TO.N,Net-(U4-Pad3)*
X82550000Y-85090000D03*
G04 #@! TO.P,U6,12*
G04 #@! TO.N,GND*
X85090000Y-77470000D03*
G04 #@! TO.P,U6,5*
G04 #@! TO.N,+5V*
X85090000Y-85090000D03*
G04 #@! TO.P,U6,13*
G04 #@! TO.N,Net-(N3-Pad4)*
X82550000Y-77470000D03*
G04 #@! TO.P,U6,6*
G04 #@! TO.N,Net-(U4-Pad1)*
X87630000Y-85090000D03*
G04 #@! TO.P,U6,14*
G04 #@! TO.N,Net-(N3-Pad5)*
X80010000Y-77470000D03*
G04 #@! TO.P,U6,7*
G04 #@! TO.N,Net-(U4-Pad2)*
X90170000Y-85090000D03*
G04 #@! TO.P,U6,15*
G04 #@! TO.N,Net-(N3-Pad1)*
X77470000Y-77470000D03*
G04 #@! TO.P,U6,8*
G04 #@! TO.N,Net-(N3-Pad2)*
X92710000Y-85090000D03*
G04 #@! TO.P,U6,16*
G04 #@! TO.N,Net-(N3-Pad0)*
X74930000Y-77470000D03*
G04 #@! TD*
D16*
G04 #@! TO.P,R2,2*
G04 #@! TO.N,Net-(J1-Pad6)*
X62230000Y-68580000D03*
G04 #@! TO.P,R2,1*
G04 #@! TO.N,Net-(N2-PadA)*
X57150000Y-68580000D03*
G04 #@! TD*
G04 #@! TO.P,R1,1*
G04 #@! TO.N,Net-(N1-PadA)*
X31750000Y-68580000D03*
G04 #@! TO.P,R1,2*
G04 #@! TO.N,Net-(J1-Pad6)*
X36830000Y-68580000D03*
G04 #@! TD*
G04 #@! TO.P,R6,2*
G04 #@! TO.N,Net-(J1-Pad6)*
X158750000Y-68580000D03*
G04 #@! TO.P,R6,1*
G04 #@! TO.N,Net-(N6-PadA)*
X153670000Y-68580000D03*
G04 #@! TD*
G04 #@! TO.P,R5,1*
G04 #@! TO.N,Net-(N5-PadA)*
X129540000Y-68580000D03*
G04 #@! TO.P,R5,2*
G04 #@! TO.N,Net-(J1-Pad6)*
X134620000Y-68580000D03*
G04 #@! TD*
G04 #@! TO.P,R4,2*
G04 #@! TO.N,Net-(J1-Pad6)*
X110490000Y-68580000D03*
G04 #@! TO.P,R4,1*
G04 #@! TO.N,Net-(N4-PadA)*
X105410000Y-68580000D03*
G04 #@! TD*
G04 #@! TO.P,R3,1*
G04 #@! TO.N,Net-(N3-PadA)*
X81280000Y-68580000D03*
G04 #@! TO.P,R3,2*
G04 #@! TO.N,Net-(J1-Pad6)*
X86360000Y-68580000D03*
G04 #@! TD*
D17*
G04 #@! TO.N,Net-(N1-Pad0)*
X33078100Y-57023500D03*
G04 #@! TO.N,Net-(N1-Pad1)*
X33542200Y-65277300D03*
G04 #@! TO.N,Net-(N1-Pad2)*
X47020600Y-56143200D03*
G04 #@! TO.N,Net-(N1-Pad5)*
X26670000Y-74952800D03*
G04 #@! TO.N,GND*
X49928600Y-92369200D03*
X48980800Y-79279500D03*
G04 #@! TO.N,Net-(U1-Pad6)*
X51294300Y-98025200D03*
G04 #@! TO.N,Net-(U1-Pad7)*
X53366400Y-97115200D03*
G04 #@! TO.N,Net-(U2-Pad9)*
X74099700Y-93630900D03*
G04 #@! TO.N,Net-(U2-Pad6)*
X73172000Y-95978100D03*
G04 #@! TO.N,Net-(N2-Pad0)*
X54569400Y-64207000D03*
G04 #@! TO.N,Net-(N2-Pad2)*
X71155700Y-56143200D03*
G04 #@! TO.N,Net-(N2-Pad5)*
X65864500Y-50642300D03*
G04 #@! TO.N,Net-(N2-Pad4)*
X66819600Y-51374800D03*
G04 #@! TO.N,Net-(U4-Pad9)*
X108547900Y-89374800D03*
G04 #@! TO.N,Net-(N3-Pad8)*
X93703300Y-80120700D03*
X78991100Y-81028900D03*
G04 #@! TO.N,Net-(N3-Pad3)*
X86347900Y-53340000D03*
G04 #@! TO.N,Net-(N3-Pad9)*
X92458600Y-80769200D03*
X81543100Y-81016900D03*
G04 #@! TO.N,Net-(N3-Pad7)*
X94151400Y-74952800D03*
G04 #@! TO.N,Net-(N4-Pad0)*
X104548400Y-56818800D03*
G04 #@! TO.N,Net-(N4-Pad2)*
X109626500Y-59199100D03*
X105842400Y-79726100D03*
X111660400Y-79910400D03*
G04 #@! TO.N,Net-(N4-Pad1)*
X98965500Y-61155600D03*
G04 #@! TO.N,Net-(N4-Pad5)*
X99891700Y-75151400D03*
G04 #@! TO.N,Net-(N4-Pad4)*
X110240300Y-52630900D03*
G04 #@! TO.N,Net-(N5-Pad8)*
X140732300Y-80121700D03*
X133879600Y-80121700D03*
X128883000Y-82532000D03*
G04 #@! TO.N,Net-(N5-Pad3)*
X133218800Y-51982500D03*
G04 #@! TO.N,Net-(N5-Pad9)*
X119004200Y-55846700D03*
G04 #@! TO.N,Net-(N6-Pad0)*
X151538000Y-59188900D03*
G04 #@! TO.N,Net-(N6-Pad2)*
X164291400Y-59710900D03*
G04 #@! TO.N,Net-(N6-Pad5)*
X147672400Y-74952800D03*
G04 #@! TO.N,Net-(N6-Pad4)*
X157916200Y-56613600D03*
G04 #@! TO.N,Net-(N6-Pad6)*
X161579000Y-51254100D03*
G04 #@! TO.N,Net-(N6-Pad7)*
X163482700Y-49370200D03*
G04 #@! TO.N,Net-(J1-Pad3)*
X66514800Y-81768500D03*
X29613000Y-87164000D03*
X125329800Y-88020400D03*
G04 #@! TO.N,Net-(J1-Pad2)*
X71255400Y-82148300D03*
X80772500Y-89390100D03*
X122813600Y-88148500D03*
X31750000Y-87630000D03*
G04 #@! TO.N,Net-(J1-Pad4)*
X54577800Y-98606700D03*
X64754600Y-96248000D03*
X66508300Y-95126300D03*
X109418100Y-88629200D03*
X109551800Y-94556000D03*
X69373600Y-95216700D03*
G04 #@! TO.N,Net-(J1-Pad5)*
X91416200Y-87975800D03*
X119851400Y-86800300D03*
X63741800Y-95404800D03*
X71662000Y-93310200D03*
X72646600Y-94294800D03*
G04 #@! TD*
D18*
G04 #@! TO.N,Net-(N1-Pad0)*
X40607000Y-57838300D02*
X40489700Y-57721000D01*
X40489700Y-57721000D02*
X40489700Y-57720900D01*
X40489700Y-57720900D02*
X33775500Y-57720900D01*
X33775500Y-57720900D02*
X33078100Y-57023500D01*
G04 #@! TO.N,Net-(N1-Pad1)*
X31244500Y-61155600D02*
X33542200Y-63453300D01*
X33542200Y-63453300D02*
X33542200Y-65277300D01*
G04 #@! TO.N,Net-(N1-Pad2)*
X29560500Y-57838300D02*
X31255600Y-56143200D01*
X31255600Y-56143200D02*
X47020600Y-56143200D01*
G04 #@! TO.N,Net-(N1-Pad5)*
X31750000Y-77470000D02*
X30524900Y-77470000D01*
X26670000Y-74952800D02*
X28515400Y-74952800D01*
X28515400Y-74952800D02*
X30524900Y-76962300D01*
X30524900Y-76962300D02*
X30524900Y-77470000D01*
G04 #@! TO.N,Net-(U1-Pad3)*
X58464900Y-91440000D02*
X58464900Y-90980500D01*
X58464900Y-90980500D02*
X57699300Y-90214900D01*
X57699300Y-90214900D02*
X40132300Y-90214900D01*
X40132300Y-90214900D02*
X35515100Y-85597700D01*
X35515100Y-85597700D02*
X35515100Y-84582500D01*
X35515100Y-84582500D02*
X34797500Y-83864900D01*
X34797500Y-83864900D02*
X33782500Y-83864900D01*
X33782500Y-83864900D02*
X32975200Y-84672200D01*
X32975200Y-84672200D02*
X32975200Y-85090000D01*
X32975200Y-85090000D02*
X32975100Y-85090000D01*
X31750000Y-85090000D02*
X32975100Y-85090000D01*
X59690000Y-91440000D02*
X58464900Y-91440000D01*
G04 #@! TO.N,GND*
X110445100Y-77929400D02*
X109473500Y-78901000D01*
X109473500Y-78901000D02*
X105500700Y-78901000D01*
X105500700Y-78901000D02*
X105136800Y-79264900D01*
X105136800Y-79264900D02*
X87650600Y-79264900D01*
X87650600Y-79264900D02*
X86315100Y-77929400D01*
X86315100Y-77929400D02*
X86315100Y-77470000D01*
X45725100Y-97790000D02*
X49928600Y-93586500D01*
X49928600Y-93586500D02*
X49928600Y-92369200D01*
X48980800Y-78716000D02*
X38793400Y-78716000D01*
X38793400Y-78716000D02*
X38055100Y-77977700D01*
X38055100Y-77977700D02*
X38055100Y-77470000D01*
X59734900Y-77470000D02*
X59734900Y-77929400D01*
X59734900Y-77929400D02*
X58948300Y-78716000D01*
X58948300Y-78716000D02*
X48980800Y-78716000D01*
X48980800Y-78716000D02*
X48980800Y-79279500D01*
X44450000Y-97790000D02*
X45725100Y-97790000D01*
X85090000Y-77470000D02*
X86315100Y-77470000D01*
X110445100Y-77929400D02*
X111247500Y-78731800D01*
X111247500Y-78731800D02*
X133772700Y-78731800D01*
X133772700Y-78731800D02*
X134575100Y-77929400D01*
X110445100Y-77470000D02*
X110445100Y-77929400D01*
X134575100Y-77929400D02*
X135361700Y-78716000D01*
X135361700Y-78716000D02*
X155516600Y-78716000D01*
X155516600Y-78716000D02*
X156254900Y-77977700D01*
X156254900Y-77977700D02*
X156254900Y-77470000D01*
X134575100Y-77470000D02*
X134575100Y-77929400D01*
X109220000Y-77470000D02*
X110445100Y-77470000D01*
X36830000Y-77470000D02*
X38055100Y-77470000D01*
X60960000Y-77470000D02*
X59734900Y-77470000D01*
X157480000Y-77470000D02*
X156254900Y-77470000D01*
X133350000Y-77470000D02*
X134575100Y-77470000D01*
G04 #@! TO.N,Net-(U1-Pad6)*
X51294300Y-98025200D02*
X52329100Y-99060000D01*
X52329100Y-99060000D02*
X53864300Y-99060000D01*
X53864300Y-99060000D02*
X54236100Y-99431800D01*
X54236100Y-99431800D02*
X54919600Y-99431800D01*
X54919600Y-99431800D02*
X55291400Y-99060000D01*
X55291400Y-99060000D02*
X57150000Y-99060000D01*
G04 #@! TO.N,Net-(U1-Pad7)*
X58464900Y-99060000D02*
X58464900Y-98141200D01*
X58464900Y-98141200D02*
X57438900Y-97115200D01*
X57438900Y-97115200D02*
X53366400Y-97115200D01*
X59690000Y-99060000D02*
X58464900Y-99060000D01*
G04 #@! TO.N,Net-(U2-Pad9)*
X88900000Y-91440000D02*
X88900000Y-91532500D01*
X88900000Y-91532500D02*
X86612700Y-93819800D01*
X86612700Y-93819800D02*
X74288600Y-93819800D01*
X74288600Y-93819800D02*
X74099700Y-93630900D01*
G04 #@! TO.N,Net-(U2-Pad5)*
X67310000Y-97834900D02*
X67310000Y-97609400D01*
X67310000Y-97609400D02*
X63500000Y-93799400D01*
X63500000Y-93799400D02*
X63500000Y-85090000D01*
X67310000Y-99060000D02*
X67310000Y-97834900D01*
G04 #@! TO.N,Net-(U2-Pad6)*
X71075100Y-99060000D02*
X71075100Y-98075000D01*
X71075100Y-98075000D02*
X73172000Y-95978100D01*
X69850000Y-99060000D02*
X71075100Y-99060000D01*
G04 #@! TO.N,Net-(N2-Pad0)*
X64737000Y-57838300D02*
X64180400Y-57838300D01*
X64180400Y-57838300D02*
X61594100Y-60424600D01*
X61594100Y-60424600D02*
X61594100Y-62389300D01*
X61594100Y-62389300D02*
X59776400Y-64207000D01*
X59776400Y-64207000D02*
X54569400Y-64207000D01*
G04 #@! TO.N,Net-(N2-Pad2)*
X53690500Y-57838300D02*
X55385600Y-56143200D01*
X55385600Y-56143200D02*
X71155700Y-56143200D01*
G04 #@! TO.N,Net-(N2-Pad5)*
X55374500Y-45524400D02*
X60492400Y-50642300D01*
X60492400Y-50642300D02*
X65864500Y-50642300D01*
G04 #@! TO.N,Net-(N2-Pad4)*
X53690500Y-48841700D02*
X56316200Y-51467400D01*
X56316200Y-51467400D02*
X66727000Y-51467400D01*
X66727000Y-51467400D02*
X66819600Y-51374800D01*
G04 #@! TO.N,Net-(U4-Pad9)*
X101600000Y-91440000D02*
X102825100Y-91440000D01*
X102825100Y-91440000D02*
X104890300Y-89374800D01*
X104890300Y-89374800D02*
X108547900Y-89374800D01*
G04 #@! TO.N,Net-(U4-Pad6)*
X97745100Y-99060000D02*
X97745100Y-98600500D01*
X97745100Y-98600500D02*
X105595600Y-90750000D01*
X105595600Y-90750000D02*
X109117600Y-90750000D01*
X109117600Y-90750000D02*
X113074900Y-86792700D01*
X113074900Y-86792700D02*
X113074900Y-85090000D01*
X114300000Y-85090000D02*
X113074900Y-85090000D01*
X96520000Y-99060000D02*
X97745100Y-99060000D01*
G04 #@! TO.N,Net-(U4-Pad15)*
X80010000Y-85090000D02*
X80010000Y-86315100D01*
X80010000Y-86315100D02*
X79947400Y-86377700D01*
X79947400Y-86377700D02*
X79947400Y-89731800D01*
X79947400Y-89731800D02*
X82896300Y-92680700D01*
X82896300Y-92680700D02*
X84353600Y-92680700D01*
X84353600Y-92680700D02*
X85134900Y-91899400D01*
X85134900Y-91899400D02*
X85134900Y-91440000D01*
X86360000Y-91440000D02*
X85134900Y-91440000D01*
G04 #@! TO.N,Net-(U5-Pad6)*
X162560000Y-85090000D02*
X161334900Y-85090000D01*
X123190000Y-99060000D02*
X124415100Y-99060000D01*
X124415100Y-99060000D02*
X124415100Y-98600500D01*
X124415100Y-98600500D02*
X125180700Y-97834900D01*
X125180700Y-97834900D02*
X149097700Y-97834900D01*
X149097700Y-97834900D02*
X161334900Y-85597700D01*
X161334900Y-85597700D02*
X161334900Y-85090000D01*
G04 #@! TO.N,Net-(U5-Pad5)*
X158794900Y-85090000D02*
X158794900Y-85597600D01*
X158794900Y-85597600D02*
X147107700Y-97284800D01*
X147107700Y-97284800D02*
X123190800Y-97284800D01*
X123190800Y-97284800D02*
X121875100Y-98600500D01*
X121875100Y-98600500D02*
X121875100Y-99060000D01*
X160020000Y-85090000D02*
X158794900Y-85090000D01*
X120650000Y-99060000D02*
X121875100Y-99060000D01*
G04 #@! TO.N,Net-(N3-Pad8)*
X78991100Y-81028900D02*
X80110900Y-79909100D01*
X80110900Y-79909100D02*
X93491700Y-79909100D01*
X93491700Y-79909100D02*
X93703300Y-80120700D01*
G04 #@! TO.N,Net-(N3-Pad3)*
X77693500Y-53340000D02*
X86347900Y-53340000D01*
G04 #@! TO.N,Net-(N3-Pad9)*
X92458600Y-80769200D02*
X81790800Y-80769200D01*
X81790800Y-80769200D02*
X81543100Y-81016900D01*
G04 #@! TO.N,Net-(N3-Pad7)*
X91395100Y-77470000D02*
X91395100Y-76962300D01*
X91395100Y-76962300D02*
X93404600Y-74952800D01*
X93404600Y-74952800D02*
X94151400Y-74952800D01*
X90170000Y-77470000D02*
X91395100Y-77470000D01*
G04 #@! TO.N,Net-(N4-Pad0)*
X112997000Y-57838300D02*
X111977500Y-56818800D01*
X111977500Y-56818800D02*
X104548400Y-56818800D01*
G04 #@! TO.N,Net-(N4-Pad2)*
X105842400Y-79726100D02*
X106026700Y-79910400D01*
X106026700Y-79910400D02*
X111660400Y-79910400D01*
X101950500Y-57838300D02*
X108265700Y-57838300D01*
X108265700Y-57838300D02*
X109626500Y-59199100D01*
X109626500Y-59199100D02*
X110031500Y-58794100D01*
X110031500Y-58794100D02*
X110635500Y-58794100D01*
G04 #@! TO.N,Net-(N4-Pad1)*
X103634500Y-61155600D02*
X98965500Y-61155600D01*
G04 #@! TO.N,Net-(N4-Pad5)*
X99891700Y-75151400D02*
X99646000Y-75151400D01*
X99646000Y-75151400D02*
X97834900Y-76962500D01*
X97834900Y-76962500D02*
X97834900Y-77977500D01*
X97834900Y-77977500D02*
X98552600Y-78695200D01*
X98552600Y-78695200D02*
X102107500Y-78695200D01*
X102107500Y-78695200D02*
X102914800Y-77887900D01*
X102914800Y-77887900D02*
X102914800Y-77470000D01*
X102914800Y-77470000D02*
X102914900Y-77470000D01*
X104140000Y-77470000D02*
X102914900Y-77470000D01*
G04 #@! TO.N,Net-(N4-Pad4)*
X101950500Y-48841700D02*
X105739700Y-52630900D01*
X105739700Y-52630900D02*
X110240300Y-52630900D01*
G04 #@! TO.N,Net-(N5-Pad8)*
X123190000Y-85090000D02*
X124415100Y-85090000D01*
X124415100Y-85090000D02*
X124415100Y-84630600D01*
X124415100Y-84630600D02*
X126513700Y-82532000D01*
X126513700Y-82532000D02*
X128883000Y-82532000D01*
X133879600Y-80121700D02*
X140732300Y-80121700D01*
G04 #@! TO.N,Net-(N5-Pad3)*
X125953500Y-53340000D02*
X127311000Y-51982500D01*
X127311000Y-51982500D02*
X133218800Y-51982500D01*
G04 #@! TO.N,Net-(N5-Pad9)*
X137254000Y-53340000D02*
X134747300Y-55846700D01*
X134747300Y-55846700D02*
X119004200Y-55846700D01*
G04 #@! TO.N,Net-(N6-Pad0)*
X161257000Y-57838300D02*
X159906400Y-59188900D01*
X159906400Y-59188900D02*
X151538000Y-59188900D01*
G04 #@! TO.N,Net-(N6-Pad2)*
X164291400Y-59710900D02*
X164291400Y-58475400D01*
X164291400Y-58475400D02*
X161959200Y-56143200D01*
X161959200Y-56143200D02*
X160554900Y-56143200D01*
X160554900Y-56143200D02*
X158859800Y-57838300D01*
X158859800Y-57838300D02*
X150210500Y-57838300D01*
G04 #@! TO.N,Net-(N6-Pad1)*
X151894500Y-61155600D02*
X152361100Y-61155600D01*
X148634900Y-77470000D02*
X149860000Y-77470000D01*
X148634900Y-76962300D02*
X148634900Y-77470000D01*
X147450600Y-75778000D02*
X148634900Y-76962300D01*
X146811900Y-75333700D02*
X147256200Y-75778000D01*
X146811900Y-74582300D02*
X146811900Y-75333700D01*
X147763600Y-73630600D02*
X146811900Y-74582300D01*
X161290000Y-71120000D02*
X158779400Y-73630600D01*
X151894540Y-62994540D02*
X152530950Y-62994540D01*
X147256200Y-75778000D02*
X147450600Y-75778000D01*
X151894540Y-61155580D02*
X151894540Y-62994540D01*
X152530950Y-62994540D02*
X154306410Y-64770000D01*
X154306410Y-64770000D02*
X160020000Y-64770000D01*
X160020000Y-64770000D02*
X161290000Y-66040000D01*
X158779400Y-73630600D02*
X147763600Y-73630600D01*
X161290000Y-66040000D02*
X161290000Y-71120000D01*
G04 #@! TO.N,Net-(N6-Pad5)*
X152400000Y-77470000D02*
X151174900Y-77470000D01*
X147672400Y-74952800D02*
X149165400Y-74952800D01*
X149165400Y-74952800D02*
X151174900Y-76962300D01*
X151174900Y-76962300D02*
X151174900Y-77470000D01*
G04 #@! TO.N,Net-(N6-Pad4)*
X150210500Y-48841700D02*
X157916200Y-56547400D01*
X157916200Y-56547400D02*
X157916200Y-56613600D01*
G04 #@! TO.N,Net-(N6-Pad6)*
X155892500Y-44523700D02*
X155892500Y-45933500D01*
X155892500Y-45933500D02*
X161213100Y-51254100D01*
X161213100Y-51254100D02*
X161579000Y-51254100D01*
G04 #@! TO.N,Net-(N6-Pad7)*
X159890500Y-45524400D02*
X160427700Y-45524400D01*
X160427700Y-45524400D02*
X163482700Y-48579400D01*
X163482700Y-48579400D02*
X163482700Y-49370200D01*
G04 #@! TO.N,+5V*
X60347500Y-85090000D02*
X62464100Y-82973400D01*
X62464100Y-82973400D02*
X71597200Y-82973400D01*
X71597200Y-82973400D02*
X72315600Y-82255000D01*
X72315600Y-82255000D02*
X81814600Y-82255000D01*
X81814600Y-82255000D02*
X82362700Y-81706900D01*
X82362700Y-81706900D02*
X129249500Y-81706900D01*
X129249500Y-81706900D02*
X132124900Y-84582300D01*
X132124900Y-84582300D02*
X132124900Y-85090000D01*
X133350000Y-85090000D02*
X132124900Y-85090000D01*
X60347500Y-85090000D02*
X59734900Y-85090000D01*
X60960000Y-85090000D02*
X60347500Y-85090000D01*
X41910000Y-97790000D02*
X48260000Y-91440000D01*
X48260000Y-91440000D02*
X57150000Y-91440000D01*
X109220000Y-85090000D02*
X107994900Y-85090000D01*
X85090000Y-85090000D02*
X86315100Y-85090000D01*
X86315100Y-85090000D02*
X86315100Y-84630600D01*
X86315100Y-84630600D02*
X87101700Y-83844000D01*
X87101700Y-83844000D02*
X107256600Y-83844000D01*
X107256600Y-83844000D02*
X107994900Y-84582300D01*
X107994900Y-84582300D02*
X107994900Y-85090000D01*
X110490000Y-91440000D02*
X111715100Y-91440000D01*
X134575100Y-85549400D02*
X135372800Y-86347100D01*
X135372800Y-86347100D02*
X155505500Y-86347100D01*
X155505500Y-86347100D02*
X156254900Y-85597700D01*
X156254900Y-85597700D02*
X156254900Y-85090000D01*
X134575100Y-85090000D02*
X134575100Y-85549400D01*
X111715100Y-91440000D02*
X111715100Y-90980500D01*
X111715100Y-90980500D02*
X112480700Y-90214900D01*
X112480700Y-90214900D02*
X129909600Y-90214900D01*
X129909600Y-90214900D02*
X134575100Y-85549400D01*
X36830000Y-85090000D02*
X38055100Y-85090000D01*
X59734900Y-85090000D02*
X59734900Y-85549400D01*
X59734900Y-85549400D02*
X58965100Y-86319200D01*
X58965100Y-86319200D02*
X38776600Y-86319200D01*
X38776600Y-86319200D02*
X38055100Y-85597700D01*
X38055100Y-85597700D02*
X38055100Y-85090000D01*
X157480000Y-85090000D02*
X156254900Y-85090000D01*
X133350000Y-85090000D02*
X134575100Y-85090000D01*
G04 #@! TO.N,Net-(J1-Pad3)*
X73615100Y-91440000D02*
X73615100Y-90744800D01*
X73615100Y-90744800D02*
X78740000Y-85619900D01*
X78740000Y-85619900D02*
X78740000Y-84612100D01*
X78740000Y-84612100D02*
X80547000Y-82805100D01*
X80547000Y-82805100D02*
X82042500Y-82805100D01*
X82042500Y-82805100D02*
X82115200Y-82732400D01*
X82115200Y-82732400D02*
X117360000Y-82732400D01*
X117360000Y-82732400D02*
X120942700Y-86315100D01*
X120942700Y-86315100D02*
X123624500Y-86315100D01*
X123624500Y-86315100D02*
X125329800Y-88020400D01*
X29613000Y-87164000D02*
X30480000Y-86297000D01*
X30480000Y-86297000D02*
X30480000Y-84585400D01*
X30480000Y-84585400D02*
X33296900Y-81768500D01*
X33296900Y-81768500D02*
X66514800Y-81768500D01*
X99060000Y-91440000D02*
X97834900Y-92665100D01*
X97834900Y-92665100D02*
X96007100Y-92665100D01*
X96007100Y-92665100D02*
X95250000Y-91908000D01*
X95250000Y-91908000D02*
X95250000Y-90943400D01*
X95250000Y-90943400D02*
X94441500Y-90134900D01*
X94441500Y-90134900D02*
X88389500Y-90134900D01*
X88389500Y-90134900D02*
X87630000Y-90894400D01*
X87630000Y-90894400D02*
X87630000Y-91934800D01*
X87630000Y-91934800D02*
X86329100Y-93235700D01*
X86329100Y-93235700D02*
X74907400Y-93235700D01*
X74907400Y-93235700D02*
X73615100Y-91943400D01*
X73615100Y-91943400D02*
X73615100Y-91440000D01*
X72390000Y-91440000D02*
X73615100Y-91440000D01*
G04 #@! TO.N,Net-(J1-Pad2)*
X97745100Y-90980600D02*
X99901100Y-88824600D01*
X99901100Y-88824600D02*
X107223400Y-88824600D01*
X107223400Y-88824600D02*
X110490000Y-85558000D01*
X110490000Y-85558000D02*
X110490000Y-84620800D01*
X110490000Y-84620800D02*
X111247200Y-83863600D01*
X111247200Y-83863600D02*
X114863000Y-83863600D01*
X114863000Y-83863600D02*
X115570000Y-84570600D01*
X115570000Y-84570600D02*
X115570000Y-85567300D01*
X115570000Y-85567300D02*
X118151200Y-88148500D01*
X118151200Y-88148500D02*
X122813600Y-88148500D01*
X97745100Y-91440000D02*
X97745100Y-90980600D01*
X97745100Y-90980600D02*
X96154600Y-89390100D01*
X96154600Y-89390100D02*
X80772500Y-89390100D01*
X96520000Y-91440000D02*
X97745100Y-91440000D01*
X70005200Y-80898100D02*
X31059000Y-80898100D01*
X71255400Y-82148300D02*
X70005200Y-80898100D01*
X31059000Y-80898100D02*
X27940000Y-84017100D01*
X27940000Y-84017100D02*
X27940000Y-87630000D01*
X27940000Y-87630000D02*
X29210000Y-88900000D01*
X31750000Y-87630000D02*
X30480000Y-88900000D01*
X30480000Y-88900000D02*
X29210000Y-88900000D01*
G04 #@! TO.N,Net-(J1-Pad4)*
X69373600Y-95126300D02*
X66508300Y-95126300D01*
X92754900Y-91899400D02*
X89528000Y-95126300D01*
X89528000Y-95126300D02*
X69373600Y-95126300D01*
X69373600Y-95216700D02*
X69373600Y-95126300D01*
X54577800Y-98606700D02*
X54115400Y-98144300D01*
X54115400Y-98144300D02*
X53228600Y-98144300D01*
X53228600Y-98144300D02*
X52513000Y-97428700D01*
X52513000Y-97428700D02*
X52513000Y-96740100D01*
X52513000Y-96740100D02*
X53005100Y-96248000D01*
X53005100Y-96248000D02*
X64754600Y-96248000D01*
X120650000Y-91440000D02*
X119424900Y-91440000D01*
X119424900Y-91440000D02*
X119424900Y-91899400D01*
X119424900Y-91899400D02*
X116768300Y-94556000D01*
X116768300Y-94556000D02*
X109551800Y-94556000D01*
X109418100Y-88629200D02*
X109418100Y-89671500D01*
X109418100Y-89671500D02*
X108889700Y-90199900D01*
X108889700Y-90199900D02*
X105367600Y-90199900D01*
X105367600Y-90199900D02*
X102352200Y-93215300D01*
X102352200Y-93215300D02*
X94070800Y-93215300D01*
X94070800Y-93215300D02*
X92754900Y-91899400D01*
X92754900Y-91899400D02*
X92754900Y-91440000D01*
X93980000Y-91440000D02*
X92754900Y-91440000D01*
G04 #@! TO.N,Net-(J1-Pad5)*
X63741800Y-95404800D02*
X52742700Y-95404800D01*
X52742700Y-95404800D02*
X48529800Y-99617700D01*
X48529800Y-99617700D02*
X26196500Y-99617700D01*
X26196500Y-99617700D02*
X25394900Y-98816100D01*
X25394900Y-98816100D02*
X25394900Y-96763900D01*
X25394900Y-96763900D02*
X25643900Y-96514900D01*
X25643900Y-96514900D02*
X35554900Y-96514900D01*
X35554900Y-96514900D02*
X36830000Y-97790000D01*
X119851400Y-86800300D02*
X119851400Y-86368800D01*
X119851400Y-86368800D02*
X116765100Y-83282500D01*
X116765100Y-83282500D02*
X85148300Y-83282500D01*
X85148300Y-83282500D02*
X83820000Y-84610800D01*
X83820000Y-84610800D02*
X83820000Y-85582400D01*
X83820000Y-85582400D02*
X86213400Y-87975800D01*
X86213400Y-87975800D02*
X91416200Y-87975800D01*
X72646600Y-94294800D02*
X72807800Y-94456000D01*
X72807800Y-94456000D02*
X87658300Y-94456000D01*
X87658300Y-94456000D02*
X90214900Y-91899400D01*
X90214900Y-91899400D02*
X90214900Y-91440000D01*
X91440000Y-91440000D02*
X90214900Y-91440000D01*
X64770000Y-91440000D02*
X65995100Y-91440000D01*
X71662000Y-93310200D02*
X67357600Y-93310200D01*
X67357600Y-93310200D02*
X65995100Y-91947700D01*
X65995100Y-91947700D02*
X65995100Y-91440000D01*
G04 #@! TO.N,Net-(J1-Pad1)*
X61004900Y-91440000D02*
X61004900Y-91947700D01*
X61004900Y-91947700D02*
X58217300Y-94735300D01*
X58217300Y-94735300D02*
X51856300Y-94735300D01*
X51856300Y-94735300D02*
X47524100Y-99067500D01*
X47524100Y-99067500D02*
X27947500Y-99067500D01*
X27947500Y-99067500D02*
X26670000Y-97790000D01*
X62230000Y-91440000D02*
X61004900Y-91440000D01*
G04 #@! TO.N,Net-(J1-Pad6)*
X62230000Y-68580000D02*
X60970100Y-69839900D01*
X60970100Y-69839900D02*
X38089900Y-69839900D01*
X38089900Y-69839900D02*
X36830000Y-68580000D01*
X134620000Y-68580000D02*
X133394900Y-67354900D01*
X111715100Y-67354900D02*
X110490000Y-68580000D01*
X134620000Y-68580000D02*
X135884200Y-67315800D01*
X157485800Y-67315800D02*
X158750000Y-68580000D01*
D19*
X31750000Y-90170000D02*
X39370000Y-97790000D01*
X26670000Y-90170000D02*
X31750000Y-90170000D01*
X24130000Y-76419798D02*
X24130000Y-87630000D01*
X24130000Y-87630000D02*
X26670000Y-90170000D01*
X38089900Y-69839900D02*
X38089900Y-71109900D01*
X25400000Y-72390000D02*
X24130000Y-73660000D01*
X36809800Y-72390000D02*
X25400000Y-72390000D01*
X38089900Y-71109900D02*
X36809800Y-72390000D01*
D18*
X157485800Y-67315800D02*
X156215800Y-67315800D01*
X156215800Y-67315800D02*
X154940000Y-66040000D01*
X154940000Y-66040000D02*
X137160000Y-66040000D01*
X137160000Y-66040000D02*
X135884200Y-67315800D01*
X133394900Y-67354900D02*
X132080000Y-66040000D01*
X132080000Y-66040000D02*
X113030000Y-66040000D01*
X113030000Y-66040000D02*
X111760000Y-67310000D01*
X109471800Y-67561700D02*
X110490000Y-68580000D01*
X109253700Y-67343700D02*
X109471800Y-67561700D01*
X107950000Y-66040000D02*
X109253700Y-67343700D01*
X86360000Y-68580000D02*
X88900000Y-66040000D01*
X88900000Y-66040000D02*
X107950000Y-66040000D01*
X63455100Y-67354900D02*
X62230000Y-68580000D01*
X64770000Y-66040000D02*
X63455100Y-67354900D01*
X86360000Y-68580000D02*
X83820000Y-66040000D01*
X83820000Y-66040000D02*
X64770000Y-66040000D01*
D19*
X24130000Y-73660000D02*
X24130000Y-76419798D01*
G04 #@! TD*
M02*
