M48
;DRILL file {KiCad (5.0.2)-1} date 1/6/2019 1:33:04 PM
;FORMAT={-:-/ absolute / inch / decimal}
FMAT,2
INCH,TZ
T1C0.0157
T2C0.0315
T3C0.0394
T4C0.0433
%
G90
G05
T1
X1.05Y-2.9509
X1.1659Y-3.4317
X1.25Y-3.45
X1.3023Y-2.245
X1.3206Y-2.57
X1.8512Y-2.2104
X1.9284Y-3.1212
X1.9657Y-3.6366
X2.0195Y-3.8593
X2.101Y-3.8234
X2.1484Y-2.5278
X2.1487Y-3.8822
X2.5095Y-3.7561
X2.5494Y-3.7893
X2.5931Y-1.9938
X2.6184Y-3.7451
X2.6187Y-3.2192
X2.6307Y-2.0226
X2.7312Y-3.7487
X2.8014Y-2.2104
X2.8053Y-3.2342
X2.8213Y-3.6736
X2.8601Y-3.7124
X2.8808Y-3.7787
X2.9173Y-3.6863
X3.1099Y-3.1901
X3.18Y-3.5193
X3.2104Y-3.1896
X3.3995Y-2.1
X3.5991Y-3.4636
X3.6401Y-3.1799
X3.6891Y-3.1544
X3.7067Y-2.9509
X3.8963Y-2.4077
X3.9327Y-2.9587
X4.1161Y-2.237
X4.167Y-3.1388
X4.2735Y-3.5187
X4.3078Y-3.4893
X4.3131Y-3.7227
X4.316Y-2.3307
X4.3402Y-2.0721
X4.3961Y-3.1461
X4.6852Y-2.1987
X4.7186Y-3.4173
X4.8352Y-3.4704
X4.9342Y-3.4654
X5.0741Y-3.2493
X5.2448Y-2.0466
X5.2709Y-3.1544
X5.5406Y-3.1544
X5.8139Y-2.9509
X5.9661Y-2.3303
X6.2172Y-2.2289
X6.3614Y-2.0179
X6.4363Y-1.9437
X6.4682Y-2.3508
T2
X4.15Y-2.7
X4.35Y-2.7
X5.1Y-2.7
X5.3Y-2.7
X6.05Y-2.7
X6.25Y-2.7
X2.25Y-2.7
X2.45Y-2.7
X3.3Y-3.6
X3.3Y-3.9
X3.4Y-3.6
X3.4Y-3.9
X3.5Y-3.6
X3.5Y-3.9
X3.6Y-3.6
X3.6Y-3.9
X3.7Y-3.6
X3.7Y-3.9
X3.8Y-3.6
X3.8Y-3.9
X3.9Y-3.6
X3.9Y-3.9
X4.Y-3.6
X4.Y-3.9
X3.2Y-2.7
X3.4Y-2.7
X5.8Y-3.05
X5.8Y-3.35
X5.9Y-3.05
X5.9Y-3.35
X6.Y-3.05
X6.Y-3.35
X6.1Y-3.05
X6.1Y-3.35
X6.2Y-3.05
X6.2Y-3.35
X6.3Y-3.05
X6.3Y-3.35
X6.4Y-3.05
X6.4Y-3.35
X6.5Y-3.05
X6.5Y-3.35
X3.9Y-3.05
X3.9Y-3.35
X4.Y-3.05
X4.Y-3.35
X4.1Y-3.05
X4.1Y-3.35
X4.2Y-3.05
X4.2Y-3.35
X4.3Y-3.05
X4.3Y-3.35
X4.4Y-3.05
X4.4Y-3.35
X4.5Y-3.05
X4.5Y-3.35
X4.6Y-3.05
X4.6Y-3.35
X4.85Y-3.05
X4.85Y-3.35
X4.95Y-3.05
X4.95Y-3.35
X5.05Y-3.05
X5.05Y-3.35
X5.15Y-3.05
X5.15Y-3.35
X5.25Y-3.05
X5.25Y-3.35
X5.35Y-3.05
X5.35Y-3.35
X5.45Y-3.05
X5.45Y-3.35
X5.55Y-3.05
X5.55Y-3.35
X4.35Y-3.6
X4.35Y-3.9
X4.45Y-3.6
X4.45Y-3.9
X4.55Y-3.6
X4.55Y-3.9
X4.65Y-3.6
X4.65Y-3.9
X4.75Y-3.6
X4.75Y-3.9
X4.85Y-3.6
X4.85Y-3.9
X4.95Y-3.6
X4.95Y-3.9
X5.05Y-3.6
X5.05Y-3.9
X2.Y-3.05
X2.Y-3.35
X2.1Y-3.05
X2.1Y-3.35
X2.2Y-3.05
X2.2Y-3.35
X2.3Y-3.05
X2.3Y-3.35
X2.4Y-3.05
X2.4Y-3.35
X2.5Y-3.05
X2.5Y-3.35
X2.6Y-3.05
X2.6Y-3.35
X2.7Y-3.05
X2.7Y-3.35
X1.05Y-3.05
X1.05Y-3.35
X1.15Y-3.05
X1.15Y-3.35
X1.25Y-3.05
X1.25Y-3.35
X1.35Y-3.05
X1.35Y-3.35
X1.45Y-3.05
X1.45Y-3.35
X1.55Y-3.05
X1.55Y-3.35
X1.65Y-3.05
X1.65Y-3.35
X1.75Y-3.05
X1.75Y-3.35
X2.25Y-3.6
X2.25Y-3.9
X2.35Y-3.6
X2.35Y-3.9
X2.45Y-3.6
X2.45Y-3.9
X2.55Y-3.6
X2.55Y-3.9
X2.65Y-3.6
X2.65Y-3.9
X2.75Y-3.6
X2.75Y-3.9
X2.85Y-3.6
X2.85Y-3.9
X2.95Y-3.6
X2.95Y-3.9
X2.95Y-3.05
X2.95Y-3.35
X3.05Y-3.05
X3.05Y-3.35
X3.15Y-3.05
X3.15Y-3.35
X3.25Y-3.05
X3.25Y-3.35
X3.35Y-3.05
X3.35Y-3.35
X3.45Y-3.05
X3.45Y-3.35
X3.55Y-3.05
X3.55Y-3.35
X3.65Y-3.05
X3.65Y-3.35
X1.25Y-2.7
X1.45Y-2.7
T3
X1.05Y-3.85
X1.15Y-3.85
X1.25Y-3.85
X1.35Y-3.85
X1.45Y-3.85
X1.55Y-3.85
X1.65Y-3.85
X1.75Y-3.85
T4
X4.0088Y-2.1
X4.0138Y-1.9229
X4.0138Y-2.2771
X4.0801Y-1.7923
X4.0801Y-2.4077
X4.2375Y-1.7529
X4.2375Y-2.4471
X4.3949Y-1.7923
X4.3949Y-2.4077
X4.4487Y-1.9229
X4.4487Y-2.2771
X4.4537Y-2.1
X1.1588Y-2.1
X1.1638Y-1.9229
X1.1638Y-2.2771
X1.2301Y-1.7923
X1.2301Y-2.4077
X1.3875Y-1.7529
X1.3875Y-2.4471
X1.5449Y-1.7923
X1.5449Y-2.4077
X1.5987Y-1.9229
X1.5987Y-2.2771
X1.6037Y-2.1
X3.0588Y-2.1
X3.0638Y-1.9229
X3.0638Y-2.2771
X3.1301Y-1.7923
X3.1301Y-2.4077
X3.2875Y-1.7529
X3.2875Y-2.4471
X3.4449Y-1.7923
X3.4449Y-2.4077
X3.4987Y-1.9229
X3.4987Y-2.2771
X3.5037Y-2.1
X5.9088Y-2.1
X5.9138Y-1.9229
X5.9138Y-2.2771
X5.9801Y-1.7923
X5.9801Y-2.4077
X6.1375Y-1.7529
X6.1375Y-2.4471
X6.2949Y-1.7923
X6.2949Y-2.4077
X6.3487Y-1.9229
X6.3487Y-2.2771
X6.3537Y-2.1
X4.9588Y-2.1
X4.9638Y-1.9229
X4.9638Y-2.2771
X5.0301Y-1.7923
X5.0301Y-2.4077
X5.1875Y-1.7529
X5.1875Y-2.4471
X5.3449Y-1.7923
X5.3449Y-2.4077
X5.3987Y-1.9229
X5.3987Y-2.2771
X5.4037Y-2.1
X2.1088Y-2.1
X2.1138Y-1.9229
X2.1138Y-2.2771
X2.1801Y-1.7923
X2.1801Y-2.4077
X2.3375Y-1.7529
X2.3375Y-2.4471
X2.4949Y-1.7923
X2.4949Y-2.4077
X2.5487Y-1.9229
X2.5487Y-2.2771
X2.5537Y-2.1
T0
M30
